<svg width="100%" viewBox="0 0 680 480" xmlns="http://www.w3.org/2000/svg">
<style>
  .th{font-family:system-ui,-apple-system,sans-serif;font-size:14px;font-weight:500}
  .ts{font-family:system-ui,-apple-system,sans-serif;font-size:12px}
</style>
<defs><marker id="arrow" viewBox="0 0 10 10" refX="8" refY="5" markerWidth="6" markerHeight="6" orient="auto-start-reverse"><path d="M2 1L8 5L2 9" fill="none" stroke="#888780" stroke-width="1.5" stroke-linecap="round" stroke-linejoin="round"/></marker></defs>
<rect x="30" y="10" width="280" height="30" rx="6" fill="#FAECE7" stroke="#993C1D" stroke-width="0.5"/>
<text class="th" fill="#712B13" x="170" y="25" text-anchor="middle" dominant-baseline="central">March 2025 · 2–4 hours</text>
<rect x="370" y="10" width="280" height="30" rx="6" fill="#E1F5EE" stroke="#0F6E56" stroke-width="0.5"/>
<text class="th" fill="#085041" x="510" y="25" text-anchor="middle" dominant-baseline="central">March 2026 · 12 minutes</text>
<line x1="340" y1="10" x2="340" y2="460" stroke="#B4B2A9" stroke-width="0.5" stroke-dasharray="4 4"/>
<rect x="50" y="56" width="240" height="36" rx="6" fill="#F1EFE8" stroke="#5F5E5A" stroke-width="0.5"/>
<text class="th" fill="#444441" x="170" y="74" text-anchor="middle" dominant-baseline="central">Customer emails dispute</text>
<line x1="170" y1="92" x2="170" y2="106" stroke="#888780" stroke-width="1.5" marker-end="url(#arrow)"/>
<rect x="50" y="106" width="240" height="36" rx="6" fill="#FAECE7" stroke="#993C1D" stroke-width="0.5"/>
<text class="th" fill="#712B13" x="170" y="124" text-anchor="middle" dominant-baseline="central">Rep reads email</text>
<line x1="170" y1="142" x2="170" y2="156" stroke="#888780" stroke-width="1.5" marker-end="url(#arrow)"/>
<rect x="50" y="156" width="240" height="36" rx="6" fill="#FAECE7" stroke="#993C1D" stroke-width="0.5"/>
<text class="th" fill="#712B13" x="170" y="174" text-anchor="middle" dominant-baseline="central">Opens billing system</text>
<line x1="170" y1="192" x2="170" y2="206" stroke="#888780" stroke-width="1.5" marker-end="url(#arrow)"/>
<rect x="50" y="206" width="240" height="36" rx="6" fill="#FAECE7" stroke="#993C1D" stroke-width="0.5"/>
<text class="th" fill="#712B13" x="170" y="224" text-anchor="middle" dominant-baseline="central">Checks contract PDF</text>
<line x1="170" y1="242" x2="170" y2="256" stroke="#888780" stroke-width="1.5" marker-end="url(#arrow)"/>
<rect x="50" y="256" width="240" height="36" rx="6" fill="#FAECE7" stroke="#993C1D" stroke-width="0.5"/>
<text class="th" fill="#712B13" x="170" y="274" text-anchor="middle" dominant-baseline="central">Calculates adjustment</text>
<line x1="170" y1="292" x2="170" y2="306" stroke="#888780" stroke-width="1.5" marker-end="url(#arrow)"/>
<rect x="50" y="306" width="240" height="36" rx="6" fill="#FAECE7" stroke="#993C1D" stroke-width="0.5"/>
<text class="th" fill="#712B13" x="170" y="324" text-anchor="middle" dominant-baseline="central">Drafts response</text>
<line x1="170" y1="342" x2="170" y2="356" stroke="#888780" stroke-width="1.5" marker-end="url(#arrow)"/>
<rect x="50" y="356" width="240" height="36" rx="6" fill="#FAECE7" stroke="#993C1D" stroke-width="0.5"/>
<text class="th" fill="#712B13" x="170" y="374" text-anchor="middle" dominant-baseline="central">Manager approves via Slack</text>
<text class="ts" fill="#888780" x="170" y="416" text-anchor="middle">7 steps · 6 context switches</text>
<rect x="390" y="56" width="240" height="36" rx="6" fill="#F1EFE8" stroke="#5F5E5A" stroke-width="0.5"/>
<text class="th" fill="#444441" x="510" y="74" text-anchor="middle" dominant-baseline="central">Customer emails dispute</text>
<line x1="510" y1="92" x2="510" y2="106" stroke="#888780" stroke-width="1.5" marker-end="url(#arrow)"/>
<rect x="390" y="106" width="240" height="170" rx="10" fill="#E1F5EE" stroke="#0F6E56" stroke-width="0.5"/>
<text class="th" fill="#085041" x="510" y="132" text-anchor="middle" dominant-baseline="central">AI agent orchestrates</text>
<text class="ts" fill="#0F6E56" x="510" y="158" text-anchor="middle" dominant-baseline="central">Parse intent</text>
<text class="ts" fill="#0F6E56" x="510" y="178" text-anchor="middle" dominant-baseline="central">Pull invoice + contract</text>
<text class="ts" fill="#0F6E56" x="510" y="198" text-anchor="middle" dominant-baseline="central">Calculate adjustment</text>
<text class="ts" fill="#0F6E56" x="510" y="218" text-anchor="middle" dominant-baseline="central">Draft memo + response</text>
<text class="ts" fill="#0F6E56" x="510" y="238" text-anchor="middle" dominant-baseline="central">Route to approver</text>
<line x1="510" y1="276" x2="510" y2="290" stroke="#888780" stroke-width="1.5" marker-end="url(#arrow)"/>
<rect x="390" y="290" width="240" height="36" rx="6" fill="#EEEDFE" stroke="#534AB7" stroke-width="0.5"/>
<text class="th" fill="#3C3489" x="510" y="308" text-anchor="middle" dominant-baseline="central">Human approves · 1 click</text>
<text class="ts" fill="#888780" x="510" y="350" text-anchor="middle">3 steps · 0 context switches</text>
<rect x="120" y="440" width="440" height="30" rx="6" fill="#F1EFE8" stroke="#5F5E5A" stroke-width="0.5"/>
<text class="ts" fill="#444441" x="340" y="455" text-anchor="middle" dominant-baseline="central">Same AI models available both years. The difference is architecture.</text>
</svg>