<svg width="100%" viewBox="0 0 680 186" xmlns="http://www.w3.org/2000/svg">
<style>
  .th{font-family:system-ui,-apple-system,sans-serif;font-size:14px;font-weight:500}
  .ts{font-family:system-ui,-apple-system,sans-serif;font-size:12px}
</style>
<defs><marker id="arrow" viewBox="0 0 10 10" refX="8" refY="5" markerWidth="6" markerHeight="6" orient="auto-start-reverse"><path d="M2 1L8 5L2 9" fill="none" stroke="#888780" stroke-width="1.5" stroke-linecap="round" stroke-linejoin="round"/></marker></defs>
<rect x="30" y="20" width="120" height="46" rx="8" fill="#F1EFE8" stroke="#5F5E5A" stroke-width="0.5"/>
<text class="th" fill="#444441" x="90" y="36" text-anchor="middle" dominant-baseline="central">Physical plant</text>
<text class="ts" fill="#5F5E5A" x="90" y="54" text-anchor="middle" dominant-baseline="central">As-is</text>
<line x1="150" y1="43" x2="174" y2="43" stroke="#888780" stroke-width="1.5" marker-end="url(#arrow)"/>
<rect x="176" y="20" width="120" height="46" rx="8" fill="#E6F1FB" stroke="#185FA5" stroke-width="0.5"/>
<text class="th" fill="#0C447C" x="236" y="36" text-anchor="middle" dominant-baseline="central">Digital twin</text>
<text class="ts" fill="#185FA5" x="236" y="54" text-anchor="middle" dominant-baseline="central">Physics-level</text>
<line x1="296" y1="43" x2="320" y2="43" stroke="#888780" stroke-width="1.5" marker-end="url(#arrow)"/>
<rect x="322" y="20" width="120" height="46" rx="8" fill="#E1F5EE" stroke="#0F6E56" stroke-width="0.5"/>
<text class="th" fill="#085041" x="382" y="36" text-anchor="middle" dominant-baseline="central">AI simulates</text>
<text class="ts" fill="#0F6E56" x="382" y="54" text-anchor="middle" dominant-baseline="central">Test changes</text>
<line x1="442" y1="43" x2="466" y2="43" stroke="#888780" stroke-width="1.5" marker-end="url(#arrow)"/>
<rect x="468" y="20" width="120" height="46" rx="8" fill="#EEEDFE" stroke="#534AB7" stroke-width="0.5"/>
<text class="th" fill="#3C3489" x="528" y="36" text-anchor="middle" dominant-baseline="central">Validate</text>
<text class="ts" fill="#534AB7" x="528" y="54" text-anchor="middle" dominant-baseline="central">90% issues caught</text>
<line x1="588" y1="43" x2="612" y2="43" stroke="#888780" stroke-width="1.5" marker-end="url(#arrow)"/>
<rect x="614" y="20" width="50" height="46" rx="8" fill="#EAF3DE" stroke="#3B6D11" stroke-width="0.5"/>
<text class="th" fill="#27500A" x="639" y="43" text-anchor="middle" dominant-baseline="central">Ship</text>
<rect x="60" y="100" width="160" height="42" rx="8" fill="#EAF3DE" stroke="#3B6D11" stroke-width="0.5"/>
<text class="th" fill="#27500A" x="140" y="114" text-anchor="middle" dominant-baseline="central">+20% throughput</text>
<text class="ts" fill="#3B6D11" x="140" y="132" text-anchor="middle" dominant-baseline="central">In 3 months</text>
<rect x="260" y="100" width="160" height="42" rx="8" fill="#FAEEDA" stroke="#854F0B" stroke-width="0.5"/>
<text class="th" fill="#633806" x="340" y="114" text-anchor="middle" dominant-baseline="central">90% issues caught</text>
<text class="ts" fill="#854F0B" x="340" y="132" text-anchor="middle" dominant-baseline="central">Before physical change</text>
<rect x="460" y="100" width="160" height="42" rx="8" fill="#E1F5EE" stroke="#0F6E56" stroke-width="0.5"/>
<text class="th" fill="#085041" x="540" y="114" text-anchor="middle" dominant-baseline="central">10–15% capex saved</text>
<text class="ts" fill="#0F6E56" x="540" y="132" text-anchor="middle" dominant-baseline="central">Hidden capacity found</text>
<text class="ts" fill="#888780" x="340" y="170" text-anchor="middle">AI didn't replace workers. It gave them a sandbox before committing steel.</text>
</svg>